<svg width="203" height="40" viewBox="0 0 203 40" fill="none" xmlns="http://www.w3.org/2000/svg">
<path d="M18.1648 16.8693H13.9034C13.8466 16.4318 13.7301 16.0369 13.554 15.6847C13.3778 15.3324 13.1449 15.0312 12.8551 14.7812C12.5653 14.5312 12.2216 14.3409 11.8239 14.2102C11.4318 14.0739 10.9972 14.0057 10.5199 14.0057C9.6733 14.0057 8.94318 14.2131 8.32955 14.6278C7.72159 15.0426 7.25284 15.642 6.9233 16.4261C6.59943 17.2102 6.4375 18.1591 6.4375 19.2727C6.4375 20.4318 6.60227 21.4034 6.93182 22.1875C7.26705 22.9659 7.7358 23.554 8.33807 23.9517C8.94602 24.3437 9.66477 24.5398 10.4943 24.5398C10.9602 24.5398 11.3835 24.4801 11.7642 24.3608C12.1506 24.2415 12.4886 24.0682 12.7784 23.8409C13.0739 23.608 13.3153 23.3267 13.5028 22.9972C13.696 22.6619 13.8295 22.2841 13.9034 21.8636L18.1648 21.8892C18.0909 22.6619 17.8665 23.4233 17.4915 24.1733C17.1222 24.9233 16.6136 25.608 15.9659 26.2273C15.3182 26.8409 14.5284 27.3295 13.5966 27.6932C12.6705 28.0568 11.608 28.2386 10.4091 28.2386C8.82955 28.2386 7.41477 27.892 6.16477 27.1989C4.92045 26.5 3.9375 25.483 3.21591 24.1477C2.49432 22.8125 2.13352 21.1875 2.13352 19.2727C2.13352 17.3523 2.5 15.7244 3.23295 14.3892C3.96591 13.054 4.95739 12.0398 6.20739 11.3466C7.45739 10.6534 8.85795 10.3068 10.4091 10.3068C11.4659 10.3068 12.4432 10.4545 13.3409 10.75C14.2386 11.0398 15.0284 11.4659 15.7102 12.0284C16.392 12.5852 16.946 13.2699 17.3722 14.0824C17.7983 14.8949 18.0625 15.8239 18.1648 16.8693ZM39.2133 19.2727C39.2133 21.1932 38.8439 22.821 38.1053 24.1562C37.3667 25.4915 36.3667 26.5057 35.1053 27.1989C33.8496 27.892 32.4405 28.2386 30.878 28.2386C29.3099 28.2386 27.8979 27.8892 26.6422 27.1903C25.3866 26.4915 24.3894 25.4773 23.6508 24.1477C22.9178 22.8125 22.5513 21.1875 22.5513 19.2727C22.5513 17.3523 22.9178 15.7244 23.6508 14.3892C24.3894 13.054 25.3866 12.0398 26.6422 11.3466C27.8979 10.6534 29.3099 10.3068 30.878 10.3068C32.4405 10.3068 33.8496 10.6534 35.1053 11.3466C36.3667 12.0398 37.3667 13.054 38.1053 14.3892C38.8439 15.7244 39.2133 17.3523 39.2133 19.2727ZM34.9008 19.2727C34.9008 18.1364 34.7388 17.1761 34.415 16.392C34.0968 15.608 33.6366 15.0142 33.0343 14.6108C32.4377 14.2074 31.7189 14.0057 30.878 14.0057C30.0428 14.0057 29.3241 14.2074 28.7218 14.6108C28.1195 15.0142 27.6564 15.608 27.3326 16.392C27.0144 17.1761 26.8553 18.1364 26.8553 19.2727C26.8553 20.4091 27.0144 21.3693 27.3326 22.1534C27.6564 22.9375 28.1195 23.5312 28.7218 23.9347C29.3241 24.3381 30.0428 24.5398 30.878 24.5398C31.7189 24.5398 32.4377 24.3381 33.0343 23.9347C33.6366 23.5312 34.0968 22.9375 34.415 22.1534C34.7388 21.3693 34.9008 20.4091 34.9008 19.2727ZM43.8363 10.5455H49.0608L53.4926 21.3523H53.6971L58.1289 10.5455H63.3534V28H59.2454V17.2784H59.1005L54.9074 27.8892H52.2824L48.0892 17.2188H47.9443V28H43.8363V10.5455ZM72.3635 10.5455V28H68.1448V10.5455H72.3635ZM92.0271 10.5455V28H88.4475L81.5015 17.9261H81.3907V28H77.172V10.5455H80.8026L87.672 20.6023H87.8168V10.5455H92.0271ZM108.294 16.2472C108.198 15.8892 108.056 15.5739 107.868 15.3011C107.681 15.0227 107.451 14.7869 107.178 14.5938C106.905 14.4006 106.593 14.2557 106.24 14.1591C105.888 14.0568 105.502 14.0057 105.081 14.0057C104.235 14.0057 103.502 14.2102 102.882 14.6193C102.269 15.0284 101.794 15.625 101.459 16.4091C101.124 17.1875 100.956 18.1335 100.956 19.2472C100.956 20.3665 101.118 21.321 101.442 22.1108C101.766 22.9006 102.235 23.5028 102.848 23.9176C103.462 24.3324 104.206 24.5398 105.081 24.5398C105.854 24.5398 106.507 24.4148 107.041 24.1648C107.581 23.9091 107.99 23.5483 108.269 23.0824C108.547 22.6165 108.686 22.0682 108.686 21.4375L109.47 21.5312H105.226V18.4545H112.752V20.7642C112.752 22.3267 112.419 23.6648 111.755 24.7784C111.095 25.892 110.186 26.7472 109.027 27.3438C107.874 27.9403 106.547 28.2386 105.047 28.2386C103.382 28.2386 101.919 27.8778 100.658 27.1562C99.3966 26.4347 98.4136 25.4062 97.7091 24.071C97.0045 22.7301 96.6523 21.1392 96.6523 19.2983C96.6523 17.8665 96.8653 16.5966 97.2915 15.4886C97.7176 14.375 98.3114 13.4318 99.0727 12.6591C99.8398 11.8864 100.726 11.3011 101.732 10.9034C102.743 10.5057 103.831 10.3068 104.996 10.3068C106.007 10.3068 106.948 10.4517 107.817 10.7415C108.692 11.0312 109.465 11.4403 110.135 11.9688C110.811 12.4972 111.36 13.125 111.78 13.8523C112.201 14.5795 112.462 15.3778 112.564 16.2472H108.294ZM134.149 15.7784C134.092 15.1534 133.839 14.6676 133.391 14.321C132.947 13.9688 132.314 13.7926 131.49 13.7926C130.945 13.7926 130.49 13.8636 130.126 14.0057C129.763 14.1477 129.49 14.3438 129.308 14.5938C129.126 14.8381 129.033 15.1193 129.027 15.4375C129.016 15.6989 129.067 15.929 129.18 16.1278C129.3 16.3267 129.47 16.5028 129.692 16.6562C129.919 16.804 130.192 16.9347 130.51 17.0483C130.828 17.1619 131.186 17.2614 131.584 17.3466L133.084 17.6875C133.947 17.875 134.709 18.125 135.368 18.4375C136.033 18.75 136.589 19.1222 137.038 19.554C137.493 19.9858 137.837 20.483 138.07 21.0455C138.303 21.608 138.422 22.2386 138.428 22.9375C138.422 24.0398 138.143 24.9858 137.592 25.7756C137.041 26.5653 136.249 27.1705 135.214 27.5909C134.186 28.0114 132.945 28.2216 131.49 28.2216C130.03 28.2216 128.757 28.0028 127.672 27.5653C126.587 27.1278 125.743 26.4631 125.141 25.571C124.538 24.679 124.229 23.5511 124.212 22.1875H128.251C128.285 22.75 128.436 23.2188 128.703 23.5938C128.97 23.9688 129.337 24.2528 129.803 24.446C130.274 24.6392 130.82 24.7358 131.439 24.7358C132.007 24.7358 132.49 24.6591 132.888 24.5057C133.291 24.3523 133.601 24.1392 133.817 23.8665C134.033 23.5937 134.143 23.2812 134.149 22.929C134.143 22.5994 134.041 22.3182 133.842 22.0852C133.643 21.8466 133.337 21.642 132.922 21.4716C132.513 21.2955 131.99 21.1335 131.354 20.9858L129.53 20.5597C128.018 20.2131 126.828 19.6534 125.959 18.8807C125.089 18.1023 124.658 17.0511 124.663 15.7273C124.658 14.6477 124.947 13.7017 125.533 12.8892C126.118 12.0767 126.928 11.4432 127.962 10.9886C128.996 10.5341 130.175 10.3068 131.499 10.3068C132.851 10.3068 134.024 10.5369 135.018 10.9972C136.018 11.4517 136.794 12.0909 137.345 12.9148C137.896 13.7386 138.178 14.6932 138.189 15.7784H134.149ZM159.193 19.2727C159.193 21.1932 158.823 22.821 158.085 24.1562C157.346 25.4915 156.346 26.5057 155.085 27.1989C153.829 27.892 152.42 28.2386 150.857 28.2386C149.289 28.2386 147.877 27.8892 146.622 27.1903C145.366 26.4915 144.369 25.4773 143.63 24.1477C142.897 22.8125 142.531 21.1875 142.531 19.2727C142.531 17.3523 142.897 15.7244 143.63 14.3892C144.369 13.054 145.366 12.0398 146.622 11.3466C147.877 10.6534 149.289 10.3068 150.857 10.3068C152.42 10.3068 153.829 10.6534 155.085 11.3466C156.346 12.0398 157.346 13.054 158.085 14.3892C158.823 15.7244 159.193 17.3523 159.193 19.2727ZM154.88 19.2727C154.88 18.1364 154.718 17.1761 154.394 16.392C154.076 15.608 153.616 15.0142 153.014 14.6108C152.417 14.2074 151.698 14.0057 150.857 14.0057C150.022 14.0057 149.303 14.2074 148.701 14.6108C148.099 15.0142 147.636 15.608 147.312 16.392C146.994 17.1761 146.835 18.1364 146.835 19.2727C146.835 20.4091 146.994 21.3693 147.312 22.1534C147.636 22.9375 148.099 23.5312 148.701 23.9347C149.303 24.3381 150.022 24.5398 150.857 24.5398C151.698 24.5398 152.417 24.3381 153.014 23.9347C153.616 23.5312 154.076 22.9375 154.394 22.1534C154.718 21.3693 154.88 20.4091 154.88 19.2727ZM180.29 19.2727C180.29 21.1932 179.921 22.821 179.182 24.1562C178.444 25.4915 177.444 26.5057 176.182 27.1989C174.927 27.892 173.517 28.2386 171.955 28.2386C170.387 28.2386 168.975 27.8892 167.719 27.1903C166.463 26.4915 165.466 25.4773 164.728 24.1477C163.995 22.8125 163.628 21.1875 163.628 19.2727C163.628 17.3523 163.995 15.7244 164.728 14.3892C165.466 13.054 166.463 12.0398 167.719 11.3466C168.975 10.6534 170.387 10.3068 171.955 10.3068C173.517 10.3068 174.927 10.6534 176.182 11.3466C177.444 12.0398 178.444 13.054 179.182 14.3892C179.921 15.7244 180.29 17.3523 180.29 19.2727ZM175.978 19.2727C175.978 18.1364 175.816 17.1761 175.492 16.392C175.174 15.608 174.713 15.0142 174.111 14.6108C173.515 14.2074 172.796 14.0057 171.955 14.0057C171.12 14.0057 170.401 14.2074 169.799 14.6108C169.196 15.0142 168.733 15.608 168.409 16.392C168.091 17.1761 167.932 18.1364 167.932 19.2727C167.932 20.4091 168.091 21.3693 168.409 22.1534C168.733 22.9375 169.196 23.5312 169.799 23.9347C170.401 24.3381 171.12 24.5398 171.955 24.5398C172.796 24.5398 173.515 24.3381 174.111 23.9347C174.713 23.5312 175.174 22.9375 175.492 22.1534C175.816 21.3693 175.978 20.4091 175.978 19.2727ZM199.768 10.5455V28H196.189L189.243 17.9261H189.132V28H184.913V10.5455H188.544L195.413 20.6023H195.558V10.5455H199.768Z" fill="black"/>
</svg>
