<svg width="39" height="39" viewBox="0 0 39 39" fill="none" xmlns="http://www.w3.org/2000/svg">
<path fill-rule="evenodd" clip-rule="evenodd" d="M19.4949 2.60857C17.0533 3.27847 15.0488 3.85861 15.0407 3.89805C15.0198 3.99983 19.7113 7.80342 19.8997 7.83724C19.9853 7.85274 20.6635 7.70185 21.4066 7.502L22.7579 7.13878L23.9389 8.10815L25.1199 9.07762L27.5061 8.56941C31.1017 7.8036 31.477 7.71564 31.4353 7.64989C31.38 7.56267 30.3406 6.67746 27.5131 4.31008C26.1466 3.16592 24.8221 2.04739 24.5696 1.8244C24.3171 1.60143 24.0709 1.41274 24.0224 1.40492C23.974 1.3971 21.9366 1.93873 19.4949 2.60857ZM8.79249 5.517L6.25298 6.20433L5.13557 11.3842C4.52099 14.2331 4.04818 16.5704 4.08498 16.5784C4.12166 16.5863 5.35096 16.3415 6.81671 16.0343L9.48172 15.4759L10.6595 10.016L11.708 10.9197C12.5161 11.6155 13.3249 12.3105 14.1345 13.0046L15.5125 14.1859L16.2744 14.0217C16.7524 13.9184 17.2298 13.8131 17.7068 13.7056C18.0756 13.6218 18.9781 13.4288 19.7124 13.2764C20.4467 13.124 21.1315 12.9591 21.2342 12.91C21.3706 12.8448 20.1154 11.7499 16.5918 8.86019C13.9358 6.68199 11.6658 4.88402 11.5474 4.86474C11.4289 4.84547 10.1893 5.13892 8.79249 5.517ZM31.2084 10.6995C29.5007 11.0663 28.0963 11.3943 28.0874 11.4283C28.0787 11.4624 28.818 12.1497 29.7306 12.9555C30.6431 13.7614 31.383 14.4519 31.3748 14.4901C31.3666 14.5283 30.352 14.7752 29.1202 15.0391C27.8884 15.3028 24.7741 15.9722 22.1996 16.5266L13.5731 18.3838C11.4031 18.8511 9.44708 19.2723 9.22638 19.32C4.79348 20.277 3.57401 20.5448 3.40279 20.599C3.23059 20.6536 3.08599 21.1554 2.50725 23.7059L1.81697 26.7478L3.63566 28.2297L5.45431 29.7115L8.5634 29.044C10.2734 28.677 11.6804 28.3398 11.6901 28.2947C11.6998 28.2498 11.4524 28 11.1404 27.7396C10.8282 27.4792 10.1898 26.914 9.72154 26.4834C9.25334 26.0528 8.78105 25.6485 8.67194 25.5848C8.56285 25.5213 8.48297 25.4341 8.49429 25.3909C8.50562 25.3479 9.8811 25.0244 11.5508 24.672C14.7937 23.9876 17.277 23.4567 22.6104 22.3075C24.9952 21.7938 27.3802 21.2808 29.7654 20.7684C31.8615 20.3183 34.2997 19.7904 35.1835 19.5954L36.7904 19.2408L37.4881 16.1641L38.1859 13.0877L36.343 11.5769C35.3294 10.746 34.458 10.0586 34.4065 10.0494C34.3552 10.04 32.916 10.3325 31.2084 10.6995ZM35.3477 23.2347C35.0101 23.318 34.3467 23.4672 33.8734 23.5662C33.4001 23.6651 32.5008 23.8581 31.875 23.9952L30.7372 24.2441L30.1296 26.9462C29.7954 28.4323 29.4792 29.6321 29.4269 29.6126C29.3082 29.5679 27.5817 28.1535 25.8558 26.6868C24.6101 25.6283 24.5281 25.5792 24.1617 25.6717C23.9499 25.7253 22.6957 25.9915 21.3744 26.2635C20.0532 26.5354 18.9253 26.7842 18.8679 26.8164C18.8105 26.8485 20.9547 28.6883 23.6328 30.905L28.502 34.9354L31.1058 34.2289C32.5377 33.8405 33.7642 33.4689 33.8312 33.4034C33.9818 33.256 36.1621 23.1019 36.0455 23.0911C35.9993 23.0868 35.6853 23.1514 35.3477 23.2347ZM19.8058 32.3524C19.3618 32.4394 18.9179 32.5267 18.474 32.6143C17.1333 32.8803 17.3698 32.9497 16.0675 31.9087C15.2002 31.2154 14.8135 30.9758 14.6161 31.009C14.468 31.0339 13.1804 31.3088 11.7547 31.6197C10.329 31.9307 9.11742 32.1754 9.06234 32.1635C8.51765 32.046 9.30647 32.7824 12.4205 35.2988L16.0725 38.2497L17.9804 37.7705C19.0297 37.5068 21.1447 36.9819 22.6804 36.604C24.2161 36.2259 25.4592 35.8953 25.4429 35.8692C25.4264 35.8432 24.3911 34.9941 23.1421 33.9825L20.8712 32.1433L19.8058 32.3524Z" fill="white"/>
</svg>
